:version 1.10
:name ASF
:units
  mass 1
  length 1
  angle deg
:documentation
  ASF file generated by Kaydara
:root
  axis xyz
  order  tx ty tz rx ry rz
  position 0 0 0
  orientation 0 0 0
:bonedata
  begin
    id 1
    name RightUpLegDummy
    direction -0.65628 -0.754516 0.00165102
    length 4.76918
    axis 0 0 0 xyz
  end
  begin
    id 2
    name RightUpLeg
    direction -0.145584 -0.923362 0.355256
    length 17.9961
    axis -24.7611 -13.1006 1.78531 xyz
    dof rx ry rz
  end
  begin
    id 3
    name RightLeg
    direction 0.263379 0.172355 -0.949171
    length 13.3386
    axis 89.6202 -21.1929 12.3855 xyz
    dof rx ry rz
  end
  begin
    id 4
    name RightFoot
    direction 0.224283 -0.968777 -0.105675
    length 5.86697
    axis 56.995 -39.6905 17.3365 xyz
    dof rx ry rz
  end
  begin
    id 5
    name RightToes
    direction -0.0806345 -0.9037 0.420506
    length 4.75197
    axis 146.825 -39.7828 17.6019 xyz
    dof rx ry rz
  end
  begin
    id 6
    name SpineDummy
    direction -3.39852e-014 1 9.33296e-014
    length 8.13779
    axis 0 0 0 xyz
  end
  begin
    id 7
    name Spine
    direction -0.156609 0.733703 0.661176
    length 7.14978
    axis 41.2365 5.68757 17.0844 xyz
    dof rx ry rz
  end
  begin
    id 8
    name Spine1
    direction 0 0 0
    length 0
    axis 42.8809 47.8308 -3.36039 xyz
    dof rx ry rz
  end
  begin
    id 9
    name HEadDummy
    direction 0.546431 0.701947 0.456819
    length 3.55512
    axis 42.8809 47.8308 -3.36039 xyz
  end
  begin
    id 10
    name HEad
    direction 0.23444 0.828559 0.508457
    length 7.35827
    axis 51.1864 49.2662 27.4903 xyz
    dof rx ry rz
  end
  begin
    id 11
    name LeftShoulder1Dummy
    direction 0.431183 0.475873 -0.766568
    length 2.49352
    axis 42.8809 47.8308 -3.36039 xyz
  end
  begin
    id 12
    name LeftShoulder1
    direction 0.268187 -0.383402 -0.883786
    length 4.48604
    axis -119.517 0.106469 35.1736 xyz
    dof rx ry rz
  end
  begin
    id 13
    name LeftArm
    direction 0.380567 -0.703221 -0.600541
    length 10.1142
    axis -5.41825 36.2925 7.8293 xyz
    dof rx ry rz
  end
  begin
    id 14
    name LeftForeArm
    direction 0.541071 -0.732356 -0.413396
    length 9.39839
    axis 4.65387 33.7604 7.81644 xyz
    dof rx ry rz
  end
  begin
    id 15
    name LeftHand
    direction 0.847511 -0.389379 -0.360707
    length 3.66142
    axis 7.65593 21.1436 -24.6758 xyz
    dof rx ry rz
  end
  begin
    id 16
    name RightShoulderDummy
    direction -0.692546 0.541855 0.476208
    length 2.49352
    axis 42.8809 47.8308 -3.36039 xyz
  end
  begin
    id 17
    name RightShoulder
    direction -0.870808 -0.316653 0.376065
    length 4.48602
    axis 141.571 51.133 -100.254 xyz
    dof rx ry rz
  end
  begin
    id 18
    name RightArm
    direction 0.366897 -0.87275 0.322015
    length 10.1142
    axis 92.3258 71.2036 138.917 xyz
    dof rx ry rz
  end
  begin
    id 19
    name RightForeArm
    direction 0.702487 -0.694568 0.155197
    length 9.39835
    axis 153.863 41.5092 -176.604 xyz
    dof rx ry rz
  end
  begin
    id 20
    name RightHand
    direction 0.79502 -0.601276 0.0800636
    length 3.66142
    axis 154.247 4.59222 142.9 xyz
    dof rx ry rz
  end
  begin
    id 21
    name LeftUpLegDummy
    direction 0.65628 -0.754516 0.00165102
    length 4.76919
    axis 0 0 0 xyz
  end
  begin
    id 22
    name LeftUpLeg
    direction -0.1277 -0.689368 0.713067
    length 17.9961
    axis -48.3385 -17.8675 0.791927 xyz
    dof rx ry rz
  end
  begin
    id 23
    name LeftLeg
    direction 0.109849 -0.991246 -0.0732378
    length 13.3386
    axis -2.05791 -7.30784 1.72042 xyz
    dof rx ry rz
  end
  begin
    id 24
    name LeftFoot
    direction 0.0448355 -0.272614 0.961078
    length 5.86697
    axis -18.7733 -7.89606 10.2113 xyz
    dof rx ry rz
  end
  begin
    id 25
    name LeftToes
    direction -0.18506 0.293668 0.937823
    length 4.75197
    axis 71.2267 -7.89606 10.2113 xyz
    dof rx ry rz
  end
:hierarchy
  begin
    root RightUpLegDummy SpineDummy LeftUpLegDummy
    RightUpLegDummy RightUpLeg
    RightUpLeg RightLeg
    RightLeg RightFoot
    RightFoot RightToes
    SpineDummy Spine
    Spine Spine1
    Spine1 HEadDummy LeftShoulder1Dummy RightShoulderDummy
    HEadDummy HEad
    LeftShoulder1Dummy LeftShoulder1
    LeftShoulder1 LeftArm
    LeftArm LeftForeArm
    LeftForeArm LeftHand
    RightShoulderDummy RightShoulder
    RightShoulder RightArm
    RightArm RightForeArm
    RightForeArm RightHand
    LeftUpLegDummy LeftUpLeg
    LeftUpLeg LeftLeg
    LeftLeg LeftFoot
    LeftFoot LeftToes
  end

:SAMPLES-PER-SECOND 30
:FULLY-SPECIFIED
:DEGREES
251
root  -12.297 39.443 26.3091 -171.038 -53.2257 166.166
RightUpLeg  -2.26586 8.03078 10.8832
RightLeg  -71.4959 -9.747 -9.12094
RightFoot  33.7152 -2.34424 -9.2529
RightToes  -1.27222e-014 -6.36111e-015 6.36111e-015
Spine  -32.5575 -21.9242 -13.3379
Spine1  1.74557 -15.475 49.6334
HEad  -8.78444 -51.5533 -11.8934
LeftShoulder1  6.36111e-015 -1.33558e-015 6.49777e-015
LeftArm  23.8578 -6.11683 14.1494
LeftForeArm  -6.02628 -7.95065 -2.81525
LeftHand  -1.92074 -3.86461 -9.08412
RightShoulder  -4.77083e-015 -6.36111e-015 -3.18055e-015
RightArm  86.868 -16.1122 -78.9413
RightForeArm  -22.139 -26.3515 -2.42962
RightHand  -0.389311 5.31361 -6.45824
LeftUpLeg  33.5854 23.8686 14.6006
LeftLeg  31.94 -8.31845 -2.83841
LeftFoot  8.73891 6.82333 -17.8618
LeftToes  1.27222e-014 1.09105e-011 6.96064e-012
252
root  -11.9442 38.1981 26.0312 -172.926 -59.0499 166.727
RightUpLeg  -2.37887 5.01262 14.2906
RightLeg  -70.5801 -12.5194 -3.14501
RightFoot  30.7193 7.43829 -20.7446
RightToes  -1.27222e-014 -6.36111e-015 6.36111e-015
Spine  -31.7353 -22.3445 -12.6895
Spine1  1.46018 -16.0414 51.065
HEad  -7.35714 -53.4363 -11.5772
LeftShoulder1  6.36111e-015 -1.33558e-015 6.49777e-015
LeftArm  20.3218 -11.6335 21.6216
LeftForeArm  -4.42366 -10.0593 -2.6147
LeftHand  -1.73114 -3.21128 -9.26789
RightShoulder  -4.77083e-015 -6.36111e-015 -3.18055e-015
RightArm  90.1592 -9.10458 -77.2127
RightForeArm  -21.0977 -25.3676 -2.68687
RightHand  -0.528418 5.41847 -5.06656
LeftUpLeg  36.0866 23.0826 14.92
LeftLeg  41.6962 -4.22914 0.610025
LeftFoot  6.78918 6.71756 -18.4967
LeftToes  1.27222e-014 1.09105e-011 6.96064e-012
253
root  -11.6303 36.639 25.752 -175.726 -64.6231 167.672
RightUpLeg  -2.69023 2.34594 17.2649
RightLeg  -68.396 -18.1117 6.55094
RightFoot  21.2169 15.0437 -31.7777
RightToes  -1.27222e-014 -6.36111e-015 6.36111e-015
Spine  -30.6432 -23.3408 -12.5776
Spine1  1.43971 -16.9805 52.3615
HEad  -6.78618 -54.4053 -11.4312
LeftShoulder1  6.36111e-015 -1.33558e-015 6.49777e-015
LeftArm  16.255 -16.8214 28.7198
LeftForeArm  -3.59921 -11.4627 -2.49056
LeftHand  -1.60313 -2.79965 -9.20035
RightShoulder  -4.77083e-015 -6.36111e-015 -3.18055e-015
RightArm  94.209 -3.14104 -73.1466
RightForeArm  -20.623 -24.5268 -2.80072
RightHand  -0.651943 5.64265 -4.14283
LeftUpLeg  40.3468 21.249 15.5163
LeftLeg  50.3503 -3.05013 2.49853
LeftFoot  5.97876 6.4252 -18.0886
LeftToes  1.27222e-014 1.09105e-011 6.96064e-012
254
root  -11.2252 35.3037 25.5023 -179.938 -69.7572 170.479
RightUpLeg  -3.6735 1.01986 20.0161
RightLeg  -66.0362 -22.6335 12.1824
RightFoot  14.2504 16.4378 -35.3212
RightToes  -1.27222e-014 -6.36111e-015 6.36111e-015
Spine  -30.9394 -23.7849 -11.6487
Spine1  3.0188 -17.8693 53.1876
HEad  -7.71976 -55.1605 -10.6854
LeftShoulder1  6.36111e-015 -1.33558e-015 6.49777e-015
LeftArm  12.4257 -21.6576 34.1672
LeftForeArm  -2.23816 -14.6556 -2.45681
LeftHand  -1.45308 -2.35644 -8.92518
RightShoulder  -4.77083e-015 -6.36111e-015 -3.18055e-015
RightArm  99.3085 0.0241197 -67.9438
RightForeArm  -20.7486 -22.9121 -3.63212
RightHand  -0.833205 6.2615 -3.48092
LeftUpLeg  44.9245 18.2 16.2815
LeftLeg  55.5705 -4.01179 1.01876
LeftFoot  7.22687 5.838 -15.9218
LeftToes  1.27222e-014 1.09105e-011 6.96064e-012
255
root  -10.6223 34.6352 25.3003 176.077 -73.7595 174.045
RightUpLeg  -4.94953 0.67429 22.0139
RightLeg  -65.9941 -24.4237 14.5435
RightFoot  12.4376 15.8884 -34.7012
RightToes  -1.27222e-014 -6.36111e-015 6.36111e-015
Spine  -32.1048 -23.7302 -10.9011
Spine1  4.85323 -18.2738 53.9442
HEad  -8.35869 -56.116 -10.9352
LeftShoulder1  6.36111e-015 -1.33558e-015 6.49777e-015
LeftArm  10.9449 -24.6255 35.7579
LeftForeArm  -1.98692 -20.9006 -1.39257
LeftHand  -1.44324 -2.37536 -8.65545
RightShoulder  -4.77083e-015 -6.36111e-015 -3.18055e-015
RightArm  103.243 0.177159 -64.7726
RightForeArm  -20.6669 -18.6197 -5.44111
RightHand  -1.06639 6.98451 -2.25016
LeftUpLeg  48.3502 15.5435 17.2683
LeftLeg  55.4145 -4.47735 0.133669
LeftFoot  8.10081 5.64448 -15.0558
LeftToes  1.27222e-014 1.09105e-011 6.96064e-012
256
root  -9.71211 34.7116 25.196 177.463 -76.2787 173.326
RightUpLeg  -6.23524 0.633177 22.2936
RightLeg  -71.2079 -24.6952 18.4571
RightFoot  14.5114 16.455 -35.2959
RightToes  -1.27222e-014 -6.36111e-015 6.36111e-015
Spine  -32.4525 -23.7982 -11.6033
Spine1  4.71532 -18.0932 54.5063
HEad  -6.41347 -57.2387 -13.4633
LeftShoulder1  6.36111e-015 -1.33558e-015 6.49777e-015
LeftArm  11.3106 -22.7152 33.8135
LeftForeArm  -4.63793 -29.8491 0.842748
LeftHand  -1.69416 -3.20518 -8.56405
RightShoulder  -4.77083e-015 -6.36111e-015 -3.18055e-015
RightArm  104.449 -3.68986 -63.1686
RightForeArm  -20.6598 -14.1181 -7.26355
RightHand  -1.33804 7.80911 -0.416609
LeftUpLeg  49.876 14.9883 17.7035
LeftLeg  49.7862 -4.30007 0.556165
LeftFoot  7.52205 5.97195 -16.158
LeftToes  1.27222e-014 1.09105e-011 6.96064e-012
257
root  -8.3229 35.5518 25.191 -174.559 -77.8511 167.169
RightUpLeg  -7.50697 1.24275 21.1296
RightLeg  -79.5479 -21.1294 19.5709
RightFoot  22.3215 18.7629 -37.3481
RightToes  -1.27222e-014 -6.36111e-015 6.36111e-015
Spine  -31.9697 -23.9585 -12.5809
Spine1  3.2549 -17.6636 54.4698
HEad  -1.9713 -58.0365 -17.2443
LeftShoulder1  6.36111e-015 -1.33558e-015 6.49777e-015
LeftArm  14.9574 -18.1777 27.9892
LeftForeArm  -11.5731 -35.8459 4.65463
LeftHand  -2.0108 -4.17315 -8.98836
RightShoulder  -4.77083e-015 -6.36111e-015 -3.18055e-015
RightArm  102.379 -12.8091 -59.0469
RightForeArm  -20.642 -13.3777 -7.57886
RightHand  -1.48599 8.36737 0.448625
LeftUpLeg  49.0682 15.8587 16.2352
LeftLeg  39.6311 -4.69022 0.101516
LeftFoot  6.79146 6.22811 -17.1667
LeftToes  1.27222e-014 1.09105e-011 6.96064e-012
258
root  -6.54129 36.8958 25.2645 -163.791 -78.7335 159.077
RightUpLeg  -8.19094 3.74302 19.1609
RightLeg  -87.6337 -14.7427 10.7796
RightFoot  37.0026 18.4457 -34.0103
RightToes  -1.27222e-014 -6.36111e-015 6.36111e-015
Spine  -31.8275 -23.7257 -12.7917
Spine1  2.64351 -17.2748 54.1967
HEad  2.49037 -58.1542 -20.6058
LeftShoulder1  6.36111e-015 -1.33558e-015 6.49777e-015
LeftArm  19.8829 -13.0335 19.2118
LeftForeArm  -17.2472 -37.4924 7.15028
LeftHand  -2.17475 -4.64178 -9.5616
RightShoulder  -4.77083e-015 -6.36111e-015 -3.18055e-015
RightArm  95.1831 -24.5471 -48.1448
RightForeArm  -19.9292 -16.0365 -6.40624
RightHand  -1.33932 7.87131 -0.586985
LeftUpLeg  46.7866 16.5701 12.8818
LeftLeg  26.4844 -6.33435 -1.09712
LeftFoot  5.74095 6.31183 -17.8878
LeftToes  1.27222e-014 1.09105e-011 6.96064e-012
259
root  -4.72861 37.9956 25.4311 -153.806 -78.5803 151.545
RightUpLeg  -8.07636 9.62621 16.1603
RightLeg  -94.0676 -11.3711 0.321553
RightFoot  47.9508 9.63355 -23.8396
RightToes  -1.27222e-014 -6.36111e-015 6.36111e-015
Spine  -31.5763 -23.1512 -13.268
Spine1  2.66424 -16.6741 53.7086
HEad  4.87086 -58.1751 -23.0602
LeftShoulder1  6.36111e-015 -1.33558e-015 6.49777e-015
LeftArm  23.4441 -8.38354 8.13949
LeftForeArm  -17.3204 -37.3798 7.1162
LeftHand  -2.24601 -4.81368 -10.1323
RightShoulder  -4.77083e-015 -6.36111e-015 -3.18055e-015
RightArm  81.8723 -32.246 -30.2537
RightForeArm  -18.4122 -17.4886 -5.72745
RightHand  -0.9897 6.48594 -1.94884
LeftUpLeg  44.7015 16.7992 8.80158
LeftLeg  13.4372 -9.21065 -1.98772
LeftFoot  2.48274 6.22195 -19.3174
LeftToes  1.27222e-014 1.09105e-011 6.96064e-012
260
root  -2.94568 38.4643 25.6428 -149.543 -77.5389 148.608
RightUpLeg  -8.47189 12.2734 13.7729
RightLeg  -92.2184 -11.6451 -2.69469
RightFoot  43.7531 2.56103 -16.5979
RightToes  -1.27222e-014 -6.36111e-015 6.36111e-015
Spine  -29.6203 -21.7311 -13.6683
Spine1  1.91022 -15.492 52.0422
HEad  4.49346 -59.1691 -23.7662
LeftShoulder1  6.36111e-015 -1.33558e-015 6.49777e-015
LeftArm  25.2446 -5.01028 -3.97718
LeftForeArm  -13.0924 -37.9938 6.03773
LeftHand  -2.27599 -4.81643 -10.9842
RightShoulder  -4.77083e-015 -6.36111e-015 -3.18055e-015
RightArm  67.0815 -32.504 -14.4386
RightForeArm  -15.5872 -13.1892 -6.97174
RightHand  -0.772503 5.60668 -2.53641
LeftUpLeg  42.6712 16.1386 4.84691
LeftLeg  3.97628 -13.1957 -2.23786
LeftFoot  -1.73368 5.76219 -20.38
LeftToes  1.27222e-014 1.09105e-011 6.96064e-012
261
root  -1.20809 38.2774 25.8243 -149.119 -75.9038 148.348
RightUpLeg  -9.41199 13.4446 12.5042
RightLeg  -79.4918 -14.2848 3.22033
RightFoot  31.7505 2.9311 -15.1826
RightToes  -1.27222e-014 -6.36111e-015 6.36111e-015
Spine  -26.021 -20.2463 -14.1507
Spine1  0.854883 -14.3108 48.0986
HEad  0.579913 -61.364 -20.4874
LeftShoulder1  6.36111e-015 -1.33558e-015 6.49777e-015
LeftArm  26.2 -2.55524 -14.9207
LeftForeArm  -7.22597 -40.25 4.7972
LeftHand  -2.2407 -4.59502 -11.7637
RightShoulder  -4.77083e-015 -6.36111e-015 -3.18055e-015
RightArm  54.4491 -28.7123 -5.86715
RightForeArm  -13.9892 -5.46495 -9.65616
RightHand  -0.569747 5.09022 -3.72167
LeftUpLeg  39.8208 15.53 1.95486
LeftLeg  0.797772 -16.3658 -2.25791
LeftFoot  -5.02631 4.56112 -18.0962
LeftToes  1.27222e-014 1.09105e-011 6.96064e-012
262
root  0.440904 37.4422 25.9731 -148.558 -73.9199 147.627
RightUpLeg  -9.14114 15.3707 11.6523
RightLeg  -61.6453 -21.2876 8.41558
RightFoot  24.3059 4.40192 -15.9129
RightToes  -1.27222e-014 -6.36111e-015 6.36111e-015
Spine  -22.5908 -19.5803 -15.1657
Spine1  1.53221 -13.7176 42.4813
HEad  -7.87534 -63.645 -12.1368
LeftShoulder1  6.36111e-015 -1.33558e-015 6.49777e-015
LeftArm  26.8268 -0.2417 -23.3809
LeftForeArm  -1.71437 -42.1655 3.13732
LeftHand  -2.14957 -4.26653 -11.7799
RightShoulder  -4.77083e-015 -6.36111e-015 -3.18055e-015
RightArm  43.3962 -22.7324 -1.49154
RightForeArm  -16.3933 0.249603 -12.9962
RightHand  -0.077606 3.8333 -6.10103
LeftUpLeg  35.5114 16.7931 1.21647
LeftLeg  4.45095 -15.7217 -2.70937
LeftFoot  -9.14681 2.67707 -12.4428
LeftToes  1.27222e-014 1.09105e-011 6.96064e-012
263
root  2.05706 36.3242 26.1042 -147.885 -71.8647 147.215
RightUpLeg  -6.09177 17.8166 10.962
RightLeg  -42.1063 -25.5648 5.59823
RightFoot  22.4499 5.39586 -17.0764
RightToes  -1.27222e-014 -6.36111e-015 6.36111e-015
Spine  -20.908 -18.5582 -15.4247
Spine1  4.6182 -13.0499 36.4738
HEad  -19.8134 -65.1815 -1.06427
LeftShoulder1  6.36111e-015 -1.33558e-015 6.49777e-015
LeftArm  27.7232 1.41696 -29.9019
LeftForeArm  1.56946 -40.1833 1.15227
LeftHand  -1.95134 -3.71406 -10.7889
RightShoulder  -4.77083e-015 -6.36111e-015 -3.18055e-015
RightArm  33.0193 -15.7796 -0.192111
RightForeArm  -20.4249 3.6091 -16.2195
RightHand  0.476763 2.60955 -8.61606
LeftUpLeg  30.8395 19.4043 2.04731
LeftLeg  9.65322 -11.0011 -2.19648
LeftFoot  -15.5403 1.3438 -8.31336
LeftToes  1.27222e-014 1.09105e-011 6.96064e-012
264
root  3.6007 35.1652 26.1744 -146.943 -69.7389 146.632
RightUpLeg  0.228348 19.8732 9.65571
RightLeg  -25.4711 -26.4384 1.56691
RightFoot  20.9394 7.06739 -19.4146
RightToes  -1.27222e-014 -6.36111e-015 6.36111e-015
Spine  -20.4758 -16.761 -14.7513
Spine1  8.68762 -11.6815 30.1727
HEad  -32.4987 -66.7926 9.65517
LeftShoulder1  6.36111e-015 -1.33558e-015 6.49777e-015
LeftArm  29.9348 1.54538 -35.5586
LeftForeArm  2.03007 -33.1049 -0.516223
LeftHand  -1.55788 -2.64219 -9.24394
RightShoulder  -4.77083e-015 -6.36111e-015 -3.18055e-015
RightArm  22.963 -10.3006 -1.3983
RightForeArm  -22.7165 6.62438 -18.9818
RightHand  0.745592 2.19806 -10.0721
LeftUpLeg  26.3671 21.6707 2.55305
LeftLeg  14.1656 -6.28642 -0.791446
LeftFoot  -22.6577 0.804022 -7.88307
LeftToes  1.27222e-014 1.09105e-011 6.96064e-012
